<?xml version="1.0" encoding="UTF-8" standalone="no"?>
<!DOCTYPE svg PUBLIC "-//W3C//DTD SVG 1.1//EN" "http://www.w3.org/Graphics/SVG/1.1/DTD/svg11.dtd">
<svg width="100%" height="100%" viewBox="0 0 16 16" version="1.1" xmlns="http://www.w3.org/2000/svg" xmlns:xlink="http://www.w3.org/1999/xlink" xml:space="preserve" xmlns:serif="http://www.serif.com/" style="fill-rule:evenodd;clip-rule:evenodd;stroke-linejoin:round;stroke-miterlimit:2;">
    <g transform="matrix(0.0604242,0,0,0.0604242,0.143745,-0.755645)">
        <path d="M83.158,236.356C83.072,234.357 83.979,232.421 85.633,231.231L85.89,230.997C95.72,224.568 103.108,217.91 108.141,210.465C110.774,206.528 112.088,201.005 112.088,201.005L146.093,200.943C146.093,200.943 145.842,206.698 148.41,210.937C153.341,219.219 159.82,225.428 168.636,231.023C169.374,231.497 169.983,232.11 170.39,232.846C170.336,232.765 170.434,232.919 170.434,232.919L170.953,233.874L171.163,234.552L171.32,235.19L171.402,236.004L171.341,236.966C162.433,240.517 152.987,243.006 143.163,244.276C138.239,244.809 133.239,245.081 128.176,245.081C122.325,245.081 116.557,244.718 110.895,244.009C101.216,242.591 91.92,239.99 83.158,236.356Z" style="fill:rgb(249,213,75);"/>
    </g>
    <g transform="matrix(0.0734783,0,0,0.0653606,0.359249,-0.775484)">
        <path d="M61.321,133.103C62.455,131.46 62.093,129.215 60.5,128.012C51.548,121.236 43.464,121.071 37.065,124.043C26.411,128.991 20.112,143.607 21.449,155.367C22.118,161.254 24.569,166.429 28.913,169.777C33.27,173.134 39.994,174.775 49.489,172.156C50.753,171.808 52.778,171.051 54.531,170.364C56.448,169.653 57.435,167.532 56.745,165.608C56.278,164.295 55.74,162.795 55.269,161.481C54.96,160.62 54.316,159.92 53.483,159.54C52.651,159.161 51.7,159.134 50.847,159.465C46.257,161.355 42.884,162.003 39.743,161.616C37.032,161.283 35.073,160.119 33.899,158.256C32.044,155.313 31.227,151.149 32.187,147.184C33.64,141.186 37.528,135.362 43.203,134.204C46.496,133.533 50.245,134.515 54.371,137.531C55.054,138.023 55.906,138.219 56.736,138.076C57.565,137.932 58.301,137.461 58.779,136.769C59.589,135.612 60.518,134.265 61.321,133.103Z" style="fill:rgb(249,213,75);"/>
    </g>
    <g transform="matrix(0.0556164,0,0,0.0556164,0.703123,0.537092)">
        <path d="M250.319,107.765C255.397,106.781 264.443,106.879 267.133,108.513C269.78,110.12 266.459,117.567 266.459,117.567L256.069,126.698C250.876,131.286 245.986,136.028 241.216,140.793C238.064,143.905 235.545,146.474 233.844,148.233C207.501,174.925 182.208,199.998 126.485,199.367C73.534,198.769 39.418,154.417 71.131,130.499C77.913,125.384 86.176,122.616 94.671,122.616C110.672,122.616 145.176,122.616 161.588,122.625C166.543,122.625 171.468,123.376 176.197,124.853C192.718,129.984 214.375,124.667 238.412,114.504C243.061,112.587 245.842,108.633 250.319,107.765Z" style="fill:rgb(249,213,75);"/>
    </g>
    <g transform="matrix(0.0604242,0,0,0.0604242,0.203076,-0.273804)">
        <path d="M135.504,95.08C138.76,92.687 140.876,88.829 140.876,84.482C140.876,79.477 135.131,70.061 131.237,64.255C130.453,63.086 129.139,62.386 127.732,62.386C126.325,62.386 125.011,63.086 124.227,64.255C120.333,70.061 114.588,79.477 114.588,84.482C114.588,88.857 116.73,92.736 120.022,95.125C104.753,96.58 90.891,102.244 86.93,111.992C86.395,113.294 86.543,114.777 87.327,115.947C88.111,117.117 89.426,117.819 90.834,117.819C105.758,117.819 149.686,117.819 164.618,117.814C166.018,117.814 167.327,117.119 168.111,115.959C168.895,114.799 169.052,113.326 168.53,112.026C165.773,105.063 158.194,100.227 148.677,97.478C144.57,96.291 140.101,95.493 135.504,95.08Z" style="fill:rgb(249,213,75);"/>
    </g>
</svg>
